<?xml version="1.0" encoding="UTF-8" standalone="no"?>
<!-- Created with Inkscape (http://www.inkscape.org/) -->

<svg
   xmlns:dc="http://purl.org/dc/elements/1.1/"
   xmlns:cc="http://creativecommons.org/ns#"
   xmlns:rdf="http://www.w3.org/1999/02/22-rdf-syntax-ns#"
   xmlns:svg="http://www.w3.org/2000/svg"
   xmlns="http://www.w3.org/2000/svg"
   xmlns:xlink="http://www.w3.org/1999/xlink"
   xmlns:sodipodi="http://sodipodi.sourceforge.net/DTD/sodipodi-0.dtd"
   xmlns:inkscape="http://www.inkscape.org/namespaces/inkscape"
   version="1.1"
   id="svg10"
   width="219"
   height="170"
   viewBox="0 0 219 170"
   sodipodi:docname="LogoClickprepagas.svg"
   inkscape:version="0.92.2 (5c3e80d, 2017-08-06)">
  <metadata
     id="metadata16">
    <rdf:RDF>
      <cc:Work
         rdf:about="">
        <dc:format>image/svg+xml</dc:format>
        <dc:type
           rdf:resource="http://purl.org/dc/dcmitype/StillImage" />
        <dc:title></dc:title>
      </cc:Work>
    </rdf:RDF>
  </metadata>
  <defs
     id="defs14" />
  <sodipodi:namedview
     pagecolor="#ffffff"
     bordercolor="#666666"
     borderopacity="1"
     objecttolerance="10"
     gridtolerance="10"
     guidetolerance="10"
     inkscape:pageopacity="0"
     inkscape:pageshadow="2"
     inkscape:window-width="1366"
     inkscape:window-height="705"
     id="namedview12"
     showgrid="false"
     inkscape:zoom="3.6203867"
     inkscape:cx="220.88912"
     inkscape:cy="34.303583"
     inkscape:window-x="-8"
     inkscape:window-y="-8"
     inkscape:window-maximized="1"
     inkscape:current-layer="g57" />
  <image
     sodipodi:absref="C:\My Web Sites\La salud es todo\assets\media\Iconos\LogoClickprepagas.png"
     xlink:href="LogoClickprepagas.png"
     y="34.221138"
     x="-207.03117"
     id="image18"
     style="image-rendering:optimizeQuality"
     preserveAspectRatio="none"
     height="170"
     width="219" />
  <g
     id="g57"
     transform="translate(-16.440233,6.5407378)">
    <path
       style="fill:#333333;fill-opacity:1"
       d="m 135.21005,158.83337 v -11.51589 l 2.75,0.15517 c 1.5125,0.0853 3.96485,-0.17562 5.44968,-0.5799 5.97647,-1.62724 10.35753,8.36055 6.24362,14.23399 -1.73569,2.47805 -7.18496,3.08085 -9.2433,1.02251 -0.93333,-0.93333 -1.2,-0.15556 -1.2,3.5 0,4.03333 -0.28369,4.7 -2,4.7 -1.88422,0 -2,-0.66667 -2,-11.51588 z"
       id="path1024" />
    <path
       style="fill:#333333;fill-opacity:1"
       d="m 147.26027,157.71718 c 1.90653,-5.01455 -1.86516,-9.60769 -6.05022,-7.36792 -2.28007,1.22024 -2.78837,6.81163 -0.8,8.8 2.17193,2.17193 5.76561,1.42065 6.85022,-1.43208 z"
       id="path1022" />
    <path
       style="fill:#333333;fill-opacity:1"
       d="m 176.86504,168.52051 c -0.91025,-1.00581 -1.65499,-2.13081 -1.65499,-2.5 0,-1.0599 3.81397,-0.78128 4.5,0.32875 0.33992,0.55 1.89333,1 3.45203,1 2.80361,0 4.04797,-1.46994 4.04797,-4.78179 0,-1.25862 -0.26667,-1.35154 -1.2,-0.41821 -1.78893,1.78893 -7.26892,1.45444 -9.0107,-0.55 -3.75472,-4.32093 -2.91854,-10.80877 1.79076,-13.89441 2.49455,-1.6345 2.85758,-1.64097 5.54463,-0.0988 1.58142,0.90762 2.87531,1.22114 2.87531,0.69671 0,-0.52441 0.9,-0.95348 2,-0.95348 1.81626,0 2,0.66667 2,7.25659 0,7.90926 -1.24359,13.64588 -3.23173,14.90779 -2.43299,1.54427 -9.3787,0.92357 -11.11328,-0.99313 z"
       id="path1020" />
    <path
       style="fill:#333333;fill-opacity:1"
       d="m 186.01005,159.14926 c 1.32575,-1.32575 1.58337,-5.69539 0.43469,-7.37294 -1.51469,-2.21207 -4.27153,-2.39022 -6.25737,-0.40438 -2.21139,2.21139 -2.47466,4.17952 -0.94214,7.04306 1.15713,2.16211 4.9277,2.57138 6.76482,0.73426 z"
       id="path1018" />
    <path
       style="fill:#333333;fill-opacity:1"
       d="M 12.445365,159.9261 C 8.97572,156.74641 8.71005,156.10082 8.71005,150.84926 c 0,-5.25157 0.26567,-5.89715 3.735315,-9.07684 3.116058,-2.85565 4.494678,-3.42316 8.315741,-3.42316 5.48319,0 8.448944,1.38953 8.448944,3.95854 0,1.77149 -0.188812,1.79398 -3.055427,0.36392 -6.733266,-3.35899 -13.444573,0.72309 -13.444573,8.17754 0,7.51381 6.668498,11.53271 13.378518,8.06281 2.990477,-1.54642 3.121482,-1.53063 3.121482,0.37633 0,2.66692 -2.900179,4.06086 -8.448944,4.06086 -3.821063,0 -5.199683,-0.56751 -8.315741,-3.42316 z"
       id="path1016" />
    <path
       style="fill:#333333;fill-opacity:1"
       d="m 34.21005,150.34926 c 0,-10.88889 0.24359,-13 1.5,-13 1.25641,0 1.5,2.11111 1.5,13 0,10.88889 -0.24359,13 -1.5,13 -1.25641,0 -1.5,-2.11111 -1.5,-13 z"
       id="path1014" />
    <path
       style="fill:#333333;fill-opacity:1"
       d="m 43.21005,155.42257 c 0,-7.46208 0.154605,-8.07331 2.042064,-8.07331 1.905337,0 2.022509,0.51818 1.75,7.73916 -0.242939,6.43742 -0.586416,7.79535 -2.042064,8.07331 -1.549752,0.29593 -1.75,-0.58964 -1.75,-7.73916 z"
       id="path1012" />
    <path
       style="fill:#333333;fill-opacity:1"
       d="m 53.428359,161.08164 c -2.354719,-2.50648 -2.944161,-7.5076 -1.256526,-10.66098 2.344741,-4.38119 12.038217,-5.20023 12.038217,-1.01717 0,1.71872 -0.300613,1.85525 -2.037773,0.92554 -4.871062,-2.6069 -9.501088,3.02268 -6.390466,7.77008 1.368009,2.08785 2.172674,2.39102 5.089759,1.91764 2.886182,-0.46835 3.411114,-0.27878 3.143044,1.13512 -0.227101,1.19781 -1.505871,1.78474 -4.344882,1.99422 -3.171088,0.23397 -4.492841,-0.20322 -6.241373,-2.06445 z"
       id="path1010" />
    <path
       style="fill:#333333;fill-opacity:1"
       d="m 68.21005,150.34926 c 0,-10.88889 0.24359,-13 1.5,-13 1.211325,0 1.5,1.57735 1.5,8.19616 v 8.19616 l 3.297607,-3.19616 c 1.846791,-1.78997 4.352879,-3.19616 5.696167,-3.19616 2.347535,0 2.327239,0.0736 -0.954059,3.45901 -3.670386,3.78689 -3.693491,3.66443 1.847365,9.79099 l 2.487102,2.75 h -2.409823 c -1.582595,0 -3.691822,-1.45891 -6.144453,-4.25 l -3.734631,-4.25 -0.04264,4.25 c -0.03102,3.09216 -0.451284,4.25 -1.542635,4.25 -1.25641,0 -1.5,-2.11111 -1.5,-13 z"
       id="path1008" />
    <path
       style="fill:#333333;fill-opacity:1"
       d="m 86.21005,150.84926 v -12.5 h 4.77749 c 6.51652,0 9.22251,2.03459 9.22251,6.93425 0,4.56002 -1.53832,6.06001 -6.96078,6.78732 l -4.03922,0.54177 v 5.36832 c 0,4.10519 -0.35294,5.36834 -1.5,5.36834 -1.25333,0 -1.5,-2.05557 -1.5,-12.5 z"
       id="path1006" />
    <path
       style="fill:#333333;fill-opacity:1"
       d="m 96.02939,145.60087 c 0.23601,-1.66171 -0.36807,-2.50974 -2.3151,-3.25 -3.60062,-1.36895 -3.50424,-1.4395 -3.50424,2.5648 0,3.3007 0.20491,3.54286 2.75,3.25 1.96834,-0.22648 2.84077,-0.9555 3.06934,-2.5648 z"
       id="path1004" />
    <path
       style="fill:#333333;fill-opacity:1"
       d="m 103.21005,155.33337 v -8.01589 l 2.77862,0.21172 c 1.52824,0.11645 3.28763,-0.10286 3.90976,-0.48736 1.73459,-1.07203 4.25728,0.28544 3.61944,1.94765 -0.3133,0.81643 -1.23445,1.21816 -2.06361,0.89999 -2.82112,-1.08257 -4.24421,1.45975 -4.24421,7.58222 0,5.21088 -0.22685,5.87756 -2,5.87756 -1.83366,0 -2,-0.66668 -2,-8.01589 z"
       id="path1002" />
    <path
       style="fill:#333333;fill-opacity:1"
       d="m 117.39861,161.3103 c -2.1803,-2.03125 -2.91398,-6.90705 -1.56738,-10.41625 1.79403,-4.67516 10.90221,-5.49104 13.87758,-1.24311 3.09132,4.4135 2.07697,5.69832 -4.49876,5.69832 -4.25641,0 -6,0.37778 -6,1.3 0,3.45267 5.03852,4.8801 7.9441,2.25059 1.10693,-1.00176 2.0578,-1.14992 3.07874,-0.47968 1.24555,0.81766 1.107,1.28013 -0.88362,2.94941 -3.15291,2.64393 -9.08066,2.61453 -11.95066,-0.0593 z"
       id="path1000" />
    <path
       style="fill:#333333;fill-opacity:1"
       d="m 127.21005,152.4717 c 0,-2.16264 -3.04361,-3.42361 -5.52961,-2.29091 -3.69829,1.68505 -2.98216,3.16847 1.52961,3.16847 2.2,0 4,-0.39491 4,-0.87756 z"
       id="path998" />
    <path
       style="fill:#333333;fill-opacity:1"
       d="m 156.28263,160.7144 c -5.42757,-6.90003 1.56164,-17.45573 8.53331,-12.88773 1.31676,0.86279 2.39411,1.10831 2.39411,0.54563 0,-0.56268 0.675,-1.02304 1.5,-1.02304 1.20833,0 1.5,1.55555 1.5,8 0,6.44443 -0.29167,8 -1.5,8 -0.825,0 -1.5,-0.54 -1.5,-1.2 0,-0.93333 -0.26667,-0.93333 -1.2,0 -2.20939,2.20939 -7.4714,1.43321 -9.72742,-1.43486 z"
       id="path996" />
    <path
       style="fill:#333333;fill-opacity:1"
       d="m 166.23766,158.29768 c 1.51504,-2.8309 0.8644,-5.96036 -1.57399,-7.5706 -1.74094,-1.14966 -2.37529,-1.12099 -4.25,0.19211 -2.43034,1.70228 -2.98478,6.2489 -1.00362,8.23007 1.87993,1.87993 5.61507,1.41406 6.82761,-0.85158 z"
       id="path994" />
    <path
       style="fill:#333333;fill-opacity:1"
       d="m 196.76675,161.12675 c -4.11391,-5.87344 0.26715,-15.86124 6.24362,-14.234 1.48483,0.40428 3.93718,0.66523 5.44968,0.5799 l 2.75,-0.15516 v 8.01589 c 0,7.34921 -0.16634,8.01588 -2,8.01588 -1.1,0 -2,-0.54 -2,-1.2 0,-0.93333 -0.26667,-0.93333 -1.2,0 -2.05834,2.05834 -7.50761,1.45554 -9.2433,-1.02251 z"
       id="path992" />
    <path
       style="fill:#333333;fill-opacity:1"
       d="m 206.01005,159.14926 c 1.98837,-1.98837 1.48007,-7.57976 -0.8,-8.8 -4.18506,-2.23977 -7.95675,2.35337 -6.05022,7.36792 1.08461,2.85273 4.67829,3.60401 6.85022,1.43208 z"
       id="path990" />
    <path
       style="fill:#333333;fill-opacity:1"
       d="m 215.21987,161.86109 c -1.00074,-1.20582 -0.92669,-1.60651 0.39029,-2.11188 0.89395,-0.34304 2.2889,-0.073 3.09989,0.60005 1.70639,1.41616 4.50126,0.65886 4.4973,-1.21862 -0.001,-0.70476 -1.68899,-2.18138 -3.75,-3.28138 -4.73241,-2.52577 -5.40901,-5.69272 -1.73107,-8.10259 1.97857,-1.29641 3.29027,-1.49987 5.24279,-0.8132 3.4668,1.21921 2.91777,2.99713 -0.80346,2.60182 -4.22957,-0.44931 -3.90766,2.51821 0.47166,4.34801 3.86084,1.61316 5.21111,4.40472 3.593,7.42819 -0.84029,1.57007 -2.08721,2.03777 -5.43296,2.03777 -2.62459,0 -4.83095,-0.5887 -5.57744,-1.48817 z"
       id="path988" />
    <path
       style="fill:#333333;fill-opacity:1"
       d="m 42.833898,140.8114 c -0.341972,-0.89116 0.06182,-1.78802 0.960228,-2.13278 1.867361,-0.71657 3.910724,1.06102 2.969775,2.58351 -0.98128,1.58773 -3.247507,1.32783 -3.930003,-0.45073 z"
       id="path986" />
    <path
       style="fill:#333333;fill-opacity:1"
       d="m 163.71005,130.34926 c 0.33992,-0.55 0.81648,-1 1.05902,-1 0.24254,0 0.44098,0.45 0.44098,1 0,0.55 -0.47656,1 -1.05902,1 -0.58246,0 -0.7809,-0.45 -0.44098,-1 z"
       id="path984" />
    <path
       style="fill:#333333;fill-opacity:1"
       d="m 103.71005,123.93761 c -3.67768,-1.63456 -7.01372,-5.15654 -8.43339,-8.90345 -2.3744,-6.26675 -0.41641,-21.197799 3.87729,-29.567088 l 1.7845,-3.478345 0.698,6.517812 c 0.92112,8.60136 4.17586,15.339701 10.98897,22.750661 6.54252,7.11663 7.19099,10.21001 2.63429,12.56638 -3.58598,1.85438 -7.54598,1.89348 -11.54966,0.11403 z"
       id="path982" />
    <path
       style="fill:#333333;fill-opacity:1"
       d="M 81.609754,96.58394 C 77.788455,94.032391 76.993822,83.856289 80.204648,78.590113 84.070406,72.249764 93.25744,68.917809 105.21005,69.521149 l 6.5,0.328104 -5.09882,2.308109 c -6.386,2.890779 -12.46549,9.054808 -15.96983,16.191891 -4.07879,8.307007 -6.1268,10.174303 -9.031646,8.234687 z"
       id="path980" />
    <path
       style="fill:#333333;fill-opacity:1"
       d="m 135.48136,90.599253 c 2.76281,-5.889962 3.13028,-7.641891 2.88406,-13.75 -0.75808,-18.806045 -1.01328,-16.964987 2.39788,-17.298684 3.87061,-0.378643 7.80463,2.619703 10.58314,8.066029 4.02575,7.89113 0.30061,16.306709 -11.00736,24.867065 -3.53501,2.676075 -6.78654,4.86559 -7.22562,4.86559 -0.43908,0 0.62647,-3.0375 2.3679,-6.75 z"
       id="path978" />
    <path
       style="fill:#333333;fill-opacity:1"
       d="m 125.21005,70.25 c -5.77409,-5.004374 -9.62141,-6.797241 -17.29772,-8.060798 -10.90505,-1.795021 -10.70228,-1.715736 -10.70228,-4.184687 0,-4.363285 6.7513,-8.655262 13.61476,-8.655262 4.99787,0 8.83349,2.337702 12.44265,7.583445 3.07539,4.469924 7.33262,14.845659 6.73963,16.425861 -0.16337,0.435365 -2.32204,-0.963487 -4.79704,-3.108559 z"
       id="path65" />
    <path
       inkscape:connector-curvature="0"
       style="fill:#333333;fill-opacity:1"
       d="m 165.30682,57.579466 c 3.67768,1.63456 7.01372,5.15654 8.43339,8.90345 2.3744,6.26675 0.41641,21.197799 -3.87729,29.567089 l -1.7845,3.47834 -0.698,-6.51781 c -0.92112,-8.60136 -4.17586,-15.339699 -10.98897,-22.750659 -6.54252,-7.11663 -7.19099,-10.21001 -2.63429,-12.56638 3.58598,-1.85438 7.54598,-1.89348 11.54966,-0.11403 z"
       id="path982-0" />
  </g>
  <path
     style="fill:#1a1a1a;stroke-width:0.01726335"
     d=""
     id="path205"
     inkscape:connector-curvature="0" />
  <path
     style="fill:#1a1a1a;stroke-width:0.01726335"
     d=""
     id="path209"
     inkscape:connector-curvature="0" />
  <path
     style="fill:#1a1a1a;stroke-width:0.01726335"
     d="m 130.65261,47.901285 c 1.3e-4,-0.04747 0.003,-0.06485 0.007,-0.03861 0.004,0.02624 0.004,0.06508 -2.3e-4,0.08632 -0.004,0.02123 -0.007,-2.37e-4 -0.007,-0.04771 z"
     id="path215"
     inkscape:connector-curvature="0" />
  <path
     style="fill:#1a1a1a;stroke-width:0.01726335"
     d="m 130.64904,47.899846 c 8.3e-4,-0.02011 0.005,-0.0242 0.0104,-0.01043 0.005,0.01246 0.004,0.02735 -10e-4,0.03309 -0.006,0.0057 -0.01,-0.0045 -0.009,-0.02266 z"
     id="path217"
     inkscape:connector-curvature="0" />
  <path
     style="fill:#1a1a1a;stroke-width:0.00390625"
     d=""
     id="path287"
     inkscape:connector-curvature="0" />
  <path
     style="fill:#1a1a1a;stroke-width:0.00390625"
     d=""
     id="path289"
     inkscape:connector-curvature="0" />
  <path
     style="fill:#1a1a1a;stroke-width:0.00390625"
     d=""
     id="path291"
     inkscape:connector-curvature="0" />
  <path
     style="fill:#1a1a1a;stroke-width:0.00390625"
     d=""
     id="path307"
     inkscape:connector-curvature="0" />
  <path
     style="fill:#1a1a1a;stroke-width:0.00390625"
     d=""
     id="path311"
     inkscape:connector-curvature="0" />
</svg>
